<?xml version="1.0" encoding="UTF-8"?>
<svg width="218px" height="69px" viewBox="0 0 218 69" version="1.1" xmlns="http://www.w3.org/2000/svg" xmlns:xlink="http://www.w3.org/1999/xlink">
    <!-- Generator: Sketch 55.1 (78136) - https://sketchapp.com -->
    <title>logo</title>
    <desc>Created with Sketch.</desc>
    <g id="Page-1" stroke="none" stroke-width="1" fill="none" fill-rule="evenodd">
        <g id="svg-capul" transform="translate(-370.000000, 0.000000)">
            <g id="logo" transform="translate(370.000000, 0.000000)">
                <path d="M26.83,58.45 C21.45,58.45 16.59,55.93 13.5,51.52 C10.4,47.12 9.68,41.69 11.51,36.63 L23.21,4.25 C23.76,2.7 25.19,1.7 26.83,1.7 C28.47,1.7 29.89,2.7 30.45,4.25 L42.15,36.63 C43.98,41.69 43.26,47.12 40.16,51.52 C37.07,55.93 32.21,58.45 26.83,58.45 Z" id="Path" fill="#73BF43"></path>
                <path d="M45.17,58.45 C40.47,58.45 36.23,56.25 33.53,52.4 C30.83,48.55 30.19,43.82 31.79,39.4 L41.84,11.58 C42.35,10.16 43.66,9.24 45.17,9.24 C46.68,9.24 47.99,10.16 48.5,11.58 L58.55,39.4 C60.15,43.82 59.52,48.56 56.82,52.4 C54.12,56.25 49.87,58.45 45.17,58.45 Z" id="Path" fill="#73BF43"></path>
                <path d="M35.61,64.68 C33.72,64.7 31.82,64.71 29.95,64.75 L29.95,59.84 C32.21,59.44 34.37,58.61 36.3,57.4 C38.11,58.62 40.15,59.46 42.31,59.85 L42.31,64.78 L42.16,64.78 C40,64.71 37.81,64.7 35.61,64.68 Z M13.07,37.2 L24.77,4.81 C25.12,3.85 25.97,3.37 26.83,3.37 C27.68,3.37 28.54,3.85 28.89,4.81 L35.7,23.67 L30.22,38.83 C28.47,43.69 29.19,49.12 32.16,53.36 C32.61,53.99 33.1,54.57 33.62,55.13 C31.61,56.18 29.31,56.79 26.83,56.79 C16.69,56.79 9.63,46.73 13.07,37.2 Z M33.35,39.96 L37.47,28.57 L40.59,37.2 C42.76,43.22 40.74,49.45 36.4,53.22 C33.06,49.95 31.58,44.87 33.35,39.96 Z M43.4,12.14 C43.7,11.32 44.44,10.9 45.17,10.9 C45.91,10.9 46.64,11.32 46.94,12.14 L56.99,39.96 C59.95,48.15 53.88,56.79 45.17,56.79 C42.94,56.79 40.89,56.22 39.12,55.24 C40,54.41 40.81,53.49 41.53,52.48 C44.88,47.7 45.7,41.56 43.72,36.07 L39.24,23.67 L43.4,12.14 Z M69.94,67.51 C69.43,67.42 68.67,67.24 67.71,67.09 C66.75,66.93 65.58,66.72 64.25,66.54 C62.91,66.35 61.4,66.13 59.76,65.97 C58.11,65.78 56.33,65.58 54.44,65.43 C52.55,65.28 50.57,65.14 48.51,65.03 L48.03,65 L48.03,59.85 C52.1,59.11 55.76,56.8 58.18,53.36 C61.15,49.12 61.88,43.69 60.12,38.83 L50.07,11.01 C49.31,8.93 47.39,7.58 45.17,7.58 C42.95,7.58 41.03,8.93 40.27,11.01 L37.47,18.77 L32.02,3.68 C31.22,1.47 29.18,0.04 26.83,0.04 C24.48,0.04 22.44,1.47 21.64,3.68 L9.94,36.07 C7.96,41.56 8.78,47.7 12.13,52.48 C14.88,56.4 19.07,59.02 23.71,59.84 L23.71,64.97 L22.72,65.02 C20.66,65.13 18.67,65.27 16.79,65.42 C15.85,65.51 14.93,65.58 14.04,65.68 L11.47,65.96 C10.65,66.06 9.86,66.13 9.11,66.23 L6.98,66.54 C5.64,66.71 4.48,66.93 3.52,67.09 C2.56,67.24 1.8,67.42 1.29,67.51 L0.5,67.69 L0.5,68.04 L70.73,68.04 L70.73,67.69 L69.94,67.51 Z" id="Shape" fill="#007433"></path>
                <path d="M40.59,37.2 L37.47,28.57 L33.35,39.96 C31.58,44.87 33.06,49.95 36.4,53.22 C40.74,49.45 42.76,43.22 40.59,37.2 Z" id="Path" fill="#FFF100"></path>
                <path d="M105.74,53.6 L104.07,46.95 C103.15,47.51 102.08,47.97 100.84,48.33 C99.61,48.69 98.1,48.87 96.3,48.87 C94.39,48.87 92.71,48.52 91.26,47.82 C89.8,47.12 88.59,46.14 87.62,44.89 C86.64,43.63 85.91,42.12 85.44,40.34 C84.96,38.57 84.72,36.6 84.72,34.45 C84.72,29.5 85.72,25.86 87.73,23.5 C89.74,21.15 92.4,19.97 95.71,19.97 C97.5,19.97 99.02,20.07 100.28,20.27 C101.53,20.47 102.61,20.79 103.53,21.23 L105.14,14.3 C104.07,13.86 102.7,13.49 101.05,13.17 C99.4,12.85 97.38,12.69 94.99,12.69 C92.76,12.69 90.53,13.06 88.3,13.79 C86.07,14.53 84.05,15.74 82.24,17.44 C80.43,19.13 78.96,21.36 77.82,24.12 C76.69,26.89 76.12,30.32 76.12,34.42 C76.12,38.36 76.63,41.71 77.64,44.48 C78.66,47.24 80.02,49.49 81.73,51.22 C83.44,52.95 85.43,54.21 87.68,54.98 C89.92,55.76 92.3,56.15 94.81,56.15 C96.88,56.15 98.9,55.95 100.87,55.56 C102.84,55.16 104.46,54.51 105.74,53.6 Z M119.52,49.4 C118.37,49.4 117.46,49.09 116.8,48.48 C116.15,47.86 115.82,46.99 115.82,45.88 C115.82,45.08 116.08,44.43 116.6,43.91 C117.11,43.39 117.81,42.99 118.69,42.72 C119.56,42.44 120.57,42.26 121.7,42.18 C122.84,42.1 124.02,42.12 125.25,42.24 L125.25,46.12 C124.82,46.92 124.14,47.66 123.22,48.36 C122.31,49.05 121.07,49.4 119.52,49.4 Z M109.67,27.2 L111.52,32.99 C112.63,32.47 114.06,32.05 115.79,31.73 C117.52,31.41 119.16,31.25 120.72,31.25 C122.78,31.25 124.12,31.74 124.72,32.72 C125.31,33.69 125.47,35.29 125.19,37.52 C122.57,37.4 120.19,37.49 118.06,37.79 C115.93,38.09 114.1,38.63 112.56,39.4 C111.03,40.18 109.86,41.19 109.04,42.45 C108.22,43.7 107.82,45.24 107.82,47.07 C107.82,48.39 108.04,49.57 108.47,50.63 C108.91,51.68 109.53,52.6 110.32,53.37 C111.12,54.15 112.08,54.74 113.19,55.16 C114.31,55.58 115.56,55.79 116.95,55.79 C119.18,55.79 121,55.34 122.42,54.45 C123.83,53.55 124.93,52.49 125.73,51.25 L126.03,51.25 L127.28,55.37 L133.61,55.37 C133.14,53.94 132.84,52.42 132.72,50.8 C132.6,49.19 132.55,47.53 132.57,45.82 C132.59,44.11 132.66,42.37 132.78,40.6 C132.9,38.83 132.96,37.07 132.96,35.31 C132.96,33.72 132.79,32.29 132.45,31.02 C132.11,29.74 131.53,28.65 130.72,27.73 C129.9,26.82 128.8,26.11 127.4,25.61 C126.01,25.12 124.28,24.87 122.21,24.87 C119.82,24.87 117.53,25.08 115.34,25.49 C113.15,25.91 111.26,26.48 109.67,27.2 Z M151.58,31.2 C153.53,31.2 154.94,31.91 155.82,33.34 C156.69,34.78 157.13,36.81 157.13,39.43 C157.13,43.05 156.57,45.65 155.46,47.22 C154.34,48.8 152.67,49.58 150.44,49.58 C149.37,49.58 148.5,49.45 147.84,49.19 C147.19,48.93 146.58,48.59 146.02,48.15 L146.02,35.73 C146.5,34.22 147.17,33.09 148.02,32.33 C148.88,31.57 150.06,31.2 151.58,31.2 Z M138.26,25.46 L138.26,67.25 L146.02,67.25 L146.02,55.01 C146.82,55.41 147.61,55.7 148.41,55.88 C149.21,56.06 150.22,56.15 151.46,56.15 C153.65,56.15 155.59,55.77 157.28,55.01 C158.97,54.26 160.4,53.16 161.58,51.73 C162.75,50.3 163.64,48.56 164.24,46.51 C164.83,44.46 165.13,42.16 165.13,39.61 C165.13,34.36 164.2,30.55 162.32,28.18 C160.45,25.81 157.65,24.63 153.9,24.63 C151.87,24.63 150.15,24.99 148.74,25.7 C147.33,26.42 146.1,27.53 145.07,29.05 L144.83,29.05 L143.93,25.46 L138.26,25.46 Z M176.95,25.46 L169.19,25.46 L169.19,44.03 C169.19,46.38 169.4,48.33 169.82,49.88 C170.24,51.43 170.84,52.67 171.64,53.58 C172.44,54.5 173.43,55.15 174.62,55.55 C175.82,55.95 177.17,56.15 178.69,56.15 C180.91,56.15 182.85,55.65 184.48,54.66 C186.11,53.66 187.38,52.41 188.3,50.9 L188.54,50.9 L189.91,55.31 L195.76,55.31 C195.45,54.04 195.21,52.62 195.05,51.04 C194.89,49.47 194.81,47.87 194.81,46.24 L194.81,25.46 L187.05,25.46 L187.05,44.75 C186.57,46.02 185.84,47.09 184.87,47.97 C183.89,48.84 182.67,49.28 181.19,49.28 C179.52,49.28 178.4,48.75 177.82,47.67 C177.24,46.6 176.95,44.85 176.95,42.42 L176.95,25.46 L176.95,25.46 Z M208.28,45.28 L208.28,13.52 L200.52,13.52 L200.52,49.34 C200.52,51.77 201.12,53.51 202.31,54.57 C203.5,55.62 205.24,56.15 207.5,56.15 C208.9,56.15 210.25,55.99 211.57,55.67 C212.88,55.35 213.85,55.03 214.49,54.72 L213.66,48.63 C212.98,48.9 212.41,49.08 211.95,49.16 C211.5,49.24 211.03,49.28 210.55,49.28 C209.75,49.28 209.18,48.97 208.82,48.33 C208.46,47.69 208.28,46.68 208.28,45.28 Z M213.45,8.3 C214.01,8.3 214.29,8.47 214.29,8.81 C214.29,9.02 214.22,9.17 214.06,9.26 C213.91,9.35 213.69,9.39 213.41,9.39 L212.92,9.39 L212.92,8.36 C212.97,8.33 213.05,8.32 213.15,8.31 L213.45,8.3 Z M212.16,7.79 L212.16,11.55 L212.92,11.55 L212.92,9.83 L213.61,10.04 L214.66,11.55 L215.54,11.55 L214.47,9.97 L214.06,9.77 C214.35,9.75 214.6,9.66 214.79,9.49 C214.99,9.33 215.09,9.09 215.09,8.78 C215.09,8.37 214.95,8.07 214.66,7.91 C214.37,7.74 214.02,7.65 213.61,7.65 C213.36,7.65 213.09,7.66 212.81,7.69 C212.53,7.71 212.32,7.75 212.16,7.79 Z M210.73,9.68 C210.73,9.18 210.8,8.74 210.94,8.37 C211.09,8 211.29,7.69 211.55,7.44 C211.81,7.19 212.12,7.01 212.48,6.88 C212.84,6.76 213.23,6.69 213.66,6.69 C214.06,6.69 214.44,6.76 214.79,6.88 C215.15,7.01 215.46,7.19 215.72,7.44 C215.99,7.69 216.2,8 216.35,8.37 C216.51,8.74 216.58,9.18 216.58,9.68 C216.58,10.19 216.51,10.64 216.36,11.01 C216.21,11.38 216,11.69 215.74,11.94 C215.48,12.18 215.17,12.37 214.82,12.49 C214.46,12.61 214.07,12.67 213.66,12.67 C213.26,12.67 212.88,12.6 212.52,12.48 C212.16,12.36 211.85,12.17 211.59,11.92 C211.32,11.68 211.11,11.37 210.96,10.99 C210.8,10.62 210.73,10.18 210.73,9.68 Z M209.81,9.68 C209.81,10.3 209.91,10.85 210.11,11.33 C210.31,11.81 210.58,12.21 210.93,12.53 C211.28,12.85 211.68,13.1 212.15,13.27 C212.61,13.44 213.11,13.52 213.66,13.52 C214.18,13.52 214.67,13.44 215.13,13.27 C215.6,13.1 216.01,12.85 216.36,12.53 C216.71,12.21 216.99,11.81 217.19,11.33 C217.4,10.85 217.5,10.3 217.5,9.68 C217.5,9.06 217.4,8.51 217.2,8.04 C217,7.56 216.73,7.15 216.38,6.83 C216.04,6.51 215.62,6.26 215.16,6.09 C214.69,5.92 214.19,5.84 213.66,5.84 C213.13,5.84 212.64,5.92 212.18,6.09 C211.71,6.26 211.3,6.51 210.95,6.83 C210.6,7.15 210.32,7.56 210.12,8.04 C209.91,8.51 209.81,9.06 209.81,9.68 Z" id="Shape" fill="#007433"></path>
            </g>
        </g>
    </g>
</svg>